<svg width="80" height="80" viewBox="0 0 80 80" fill="none" xmlns="http://www.w3.org/2000/svg">
<path d="M0 36C0 33.7909 1.79086 32 4 32H12C14.2091 32 16 33.7909 16 36V44C16 46.2091 14.2091 48 12 48H4C1.79086 48 0 46.2091 0 44V36Z" fill="#9DA4AA"/>
<path d="M48 8H44C41.7909 8 40 9.79086 40 12V16H41C44.866 16 48 19.134 48 23V24H52C54.2091 24 56 22.2091 56 20V16H55C51.134 16 48 12.866 48 9V8Z" fill="#9DA4AA"/>
<path d="M28 24H32V25C32 28.866 35.134 32 39 32H40V36C40 38.2091 38.2091 40 36 40H32V39C32 35.134 28.866 32 25 32H24V28C24 25.7909 25.7909 24 28 24Z" fill="#9DA4AA"/>
<path d="M24 48V52C24 54.2091 25.7909 56 28 56H32V55C32 51.134 35.134 48 39 48H40V44C40 41.7909 38.2091 40 36 40H32V41C32 44.866 28.866 48 25 48H24Z" fill="#9DA4AA"/>
<path d="M56 48V52C56 54.2091 57.7909 56 60 56H64V55C64 51.134 67.134 48 71 48H72V44C72 41.7909 70.2091 40 68 40H64V41C64 44.866 60.866 48 57 48H56Z" fill="#9DA4AA"/>
<path d="M64 24H60C57.7909 24 56 25.7909 56 28V32H57C60.866 32 64 35.134 64 39V40H68C70.2091 40 72 38.2091 72 36V32H71C67.134 32 64 28.866 64 25V24Z" fill="#9DA4AA"/>
<path d="M40 64V68C40 70.2091 41.7909 72 44 72H48V71C48 67.134 51.134 64 55 64H56V60C56 57.7909 54.2091 56 52 56H48V57C48 60.866 44.866 64 41 64H40Z" fill="#9DA4AA"/>
<path d="M64 36C64 33.7909 65.7909 32 68 32H76C78.2091 32 80 33.7909 80 36V44C80 46.2091 78.2091 48 76 48H68C65.7909 48 64 46.2091 64 44V36Z" fill="#9DA4AA"/>
<path d="M48 52C48 49.7909 49.7909 48 52 48H60C62.2091 48 64 49.7909 64 52V60C64 62.2091 62.2091 64 60 64H52C49.7909 64 48 62.2091 48 60V52Z" fill="#9DA4AA"/>
<path d="M48 20C48 17.7909 49.7909 16 52 16H60C62.2091 16 64 17.7909 64 20V28C64 30.2091 62.2091 32 60 32H52C49.7909 32 48 30.2091 48 28V20Z" fill="#9DA4AA"/>
<path d="M32 68C32 65.7909 33.7909 64 36 64H44C46.2091 64 48 65.7909 48 68V76C48 78.2091 46.2091 80 44 80H36C33.7909 80 32 78.2091 32 76V68Z" fill="#9DA4AA"/>
<path d="M32 4C32 1.79086 33.7909 0 36 0H44C46.2091 0 48 1.79086 48 4V12C48 14.2091 46.2091 16 44 16H36C33.7909 16 32 14.2091 32 12V4Z" fill="#9DA4AA"/>
<path d="M32 36C32 33.7909 33.7909 32 36 32H44C46.2091 32 48 33.7909 48 36V44C48 46.2091 46.2091 48 44 48H36C33.7909 48 32 46.2091 32 44V36Z" fill="#9DA4AA"/>
<path d="M16 52C16 49.7909 17.7909 48 20 48H28C30.2091 48 32 49.7909 32 52V60C32 62.2091 30.2091 64 28 64H20C17.7909 64 16 62.2091 16 60V52Z" fill="#9DA4AA"/>
<path d="M16 20C16 17.7909 17.7909 16 20 16H28C30.2091 16 32 17.7909 32 20V28C32 30.2091 30.2091 32 28 32H20C17.7909 32 16 30.2091 16 28V20Z" fill="#9DA4AA"/>
</svg>
